<?xml version="1.0" encoding="UTF-8" standalone="no"?>
<!DOCTYPE svg PUBLIC "-//W3C//DTD SVG 1.1//EN" "http://www.w3.org/Graphics/SVG/1.1/DTD/svg11.dtd">
<svg width="100%" height="100%" viewBox="0 0 900 900" version="1.1" xmlns="http://www.w3.org/2000/svg" xmlns:xlink="http://www.w3.org/1999/xlink" xml:space="preserve" xmlns:serif="http://www.serif.com/" style="fill-rule:evenodd;clip-rule:evenodd;stroke-linejoin:round;stroke-miterlimit:2;">
    <g id="view-transitions-toolkit" transform="matrix(1.120797,0,0,1.056338,0,114.084507)" fill="#2b72ce">
        <rect x="0" y="-108" width="803" height="852" style="fill:none;"/>
        <g id="T">
            <g transform="matrix(0.892222,0,0,0.946667,26.908658,28.675324)">
                <path d="M563.83,192.83C564.645,192.472 565.858,191.543 567.399,190.137C569.439,189.2 571.708,188.25 574.267,187.208C574.37,187.169 574.473,187.129 574.575,187.087C579.022,185.281 583.328,183.305 587.479,181.129C579.701,185.747 571.924,189.273 563.83,192.83ZM594.211,177.337C605.001,170.808 614.591,162.689 622.703,152.393C632.579,139.857 639.068,125.645 642.244,110.87L824.04,110.85L824.04,177.31L695.11,177.35C690.5,177.72 687.77,180.27 687.36,185.25L687.36,527.94L615.65,527.99L615.67,184.4C615.29,180.18 612.59,177.25 608.62,177.27L594.211,177.337Z" style="fill:rgb(255 255 255 / 0.8);"/>
            </g>
            <g transform="matrix(0.892222,0,0,0.946667,26.908658,28.675324)">
                <path d="M587.479,181.129C589.771,179.927 592.016,178.665 594.211,177.337L608.62,177.27C612.59,177.25 615.29,180.18 615.67,184.4L615.65,527.99L687.36,527.94L687.36,185.25C687.77,180.27 690.5,177.72 695.11,177.35L824.04,177.31L824.04,110.85L642.244,110.87C643.644,104.358 644.4,97.736 644.519,91.1L831.56,91.13C838.51,91.13 843.66,96.585 843.66,103.1L843.66,184.91C843.66,184.98 843.658,185.049 843.655,185.119C843.313,191.647 838.776,196.93 831.581,196.93L707.26,196.959L707.26,536.27C707.26,542.924 701.643,547.68 695.574,547.68L608.844,547.76L608.84,547.76C601.88,547.76 596.06,543.418 596.06,535.59L596.04,197.195L563.785,196.83C562.089,196.811 560.611,195.728 560.059,194.165C562.169,192.713 564.562,191.439 567.399,190.137C569.439,189.2 571.708,188.25 574.267,187.208C574.37,187.169 574.473,187.129 574.575,187.087C579.022,185.281 583.328,183.305 587.479,181.129Z"/>
            </g>
        </g>
        <g id="V">
            <g transform="matrix(0.892222,0,0,0.946667,26.908658,28.675324)">
                <path d="M352.85,95.13L424.487,95.037C424.487,95.038 424.487,95.039 424.487,95.04L352.85,95.13ZM426.919,110.89C427.589,113.8 428.382,116.706 429.294,119.601C433.325,132.391 430.691,144.241 425.402,156.203L395.893,222.89L395.868,222.946L303,435.152C262.28,449.749 237.687,487.831 237.735,527.96L186.47,527.96L146.95,429.69L55.82,202.01L19.76,110.9L120.36,110.84L230.39,401.26L230.41,401.28C232.12,405.78 234.74,408.45 237.49,409.07C240.62,409.77 245.94,408.57 247.12,405.4L271.33,340.33L338.94,160.27L357.42,110.86L426.919,110.89ZM239.029,543.718C239.03,543.723 239.031,543.727 239.031,543.731L180.83,543.76L239.029,543.718Z" style="fill:rgb(255 255 255 / 0.8);"/>
            </g>
            <g transform="matrix(0.892222,0,0,0.946667,26.908658,28.675324)">
                <path d="M239.758,547.652C239.52,547.696 239.278,547.718 239.032,547.718L180.833,547.76L180.83,547.76C176.272,547.76 171.709,544.957 169.918,540.48L126.988,433.51L126.986,433.506L22.156,171.536L22.152,171.525L-3.458,106.945L-3.46,106.941C-3.937,105.734 -4.114,103.946 -3.896,102.062C-3.626,99.728 -2.798,97.259 -2.05,96.025C-1.403,94.959 -0.195,93.802 1.403,92.907C3.324,91.83 5.812,91.1 7.941,91.1L125.64,91.14C132.798,91.14 135.812,95.042 138.151,101.224L239.368,368.695L340.576,99.463L340.589,99.428C342.821,93.654 347.018,91.13 352.845,91.13L424.26,91.04C424.553,98.926 425.771,106.876 427.886,114.771C427.572,114.849 427.248,114.89 426.918,114.89L360.194,114.861L342.687,161.671L342.685,161.676L275.077,341.73L250.869,406.795C250.05,408.995 248.212,410.781 245.798,411.895C242.909,413.228 239.215,413.555 236.617,412.974L236.61,412.972C232.876,412.13 228.993,408.811 226.671,402.701L230.382,405.261L230.39,405.26L226.649,402.677L117.599,114.842L25.644,114.897L59.536,200.531L150.662,428.201L189.173,523.96L237.735,523.96C237.76,523.96 237.786,523.96 237.811,523.961C237.501,531.805 238.128,539.756 239.758,547.652ZM230.369,405.263L227.562,404.089C228.854,405.381 230.185,405.283 230.369,405.263ZM231.49,403.667L230.459,405.159L230.41,405.28L231.504,403.694L231.49,403.667Z"/>
            </g>
        </g>
        <g id="Wrench">
            <g transform="matrix(0.892222,0,0,0.946667,26.908658,28.675324)">
                <path d="M394.56,483.97C392.72,488.18 394.03,491.92 395.72,494.98C406.08,513.78 407.18,535.24 398.56,554.65C390.17,573.56 373.45,587.87 355.46,592.78C333.05,598.9 311.36,594.33 294.28,580.8C266.23,558.57 260.21,519.68 279.78,489.89C288.61,476.46 301.88,467.32 317.33,462.6C323.78,460.63 327.08,456.93 329.78,450.77L455.76,163.15C463.41,145.69 464.05,128.23 458.61,110.35C444.45,63.81 474.75,25.74 521.34,16.74L501.91,57.38C495.87,70.01 497.75,87.04 511.09,94.75C521.98,101.04 533.61,106.59 545.29,111.16C560.83,117.25 577.48,110.18 584.45,95.7L604.6,53.79C619.45,80.58 616.1,113.5 596.1,136.31C585.7,148.17 572.34,155.38 557.57,160.81C541.81,166.61 528.75,177.21 521.73,193.21L444.39,369.55L394.55,483.95L394.56,483.97ZM371.94,430.15C378.79,435.59 386.51,436.78 394.34,434.4C400.83,432.43 405.98,427.3 409.09,420.2L450.39,325.64L495.18,223.52C500.61,211.13 492.52,197.22 481.06,193.49C468.23,189.31 457.02,195.64 451.56,208.07L381.5,367.56L365.36,404.51C361.5,413.33 364.4,424.18 371.94,430.17L371.94,430.15ZM322.43,577.56C334.58,578.11 345.99,577.61 357.45,575.56C365.59,574.1 372.36,567.29 375.94,560.25L386.43,539.59C390.32,531.92 390.39,522.31 386.01,514.84L371.55,490.17C362.32,474.43 334.41,476.5 316.1,480.3C308.46,481.89 301.76,486.74 298.26,493.4L285.84,517.02C281.7,524.88 281.9,534.7 286.55,542.3L300.62,565.28C304.98,572.4 313.34,577.15 322.43,577.56Z" style="fill:rgb(255 255 255 / 0.8);fill-rule:nonzero;"/>
            </g>
            <g transform="matrix(0.892222,0,0,0.946667,26.908658,28.675324)">
                <path d="M568.92,173.19C548.39,181.53 542.33,185.37 532.28,207.76L468.2,354.4L410,488.17C432.13,529.69 416.08,580.33 374.58,601.9C331.53,624.28 278.44,604.88 259.53,560.77C240.47,516.31 262.92,464.48 309.62,448.73C311.23,448.19 314.57,446.15 315.37,444.3L409.61,228.96L439.12,162.27C445.93,146.87 448.79,131.56 443.6,115.09C435.03,87.91 438.8,59.57 456.96,37.05C475.91,13.55 504.34,0.13 534.75,0C539.59,-0.02 543.91,6.46 541.77,10.93L516.16,64.28C512.31,72.3 514.94,79.83 523.18,83.8L546.85,95.2C553.13,98.23 564.19,99.69 567.89,92.22L596.08,35.31C597.35,32.74 600.13,30.87 602.74,30.47C605.35,30.07 608.77,31.59 610.69,34.08C635.41,66.35 636.13,111.11 610.92,143.11C599.82,157.2 585.45,166.48 568.93,173.19L568.92,173.19ZM394.56,483.97L444.4,369.57L521.74,193.23C528.76,177.23 541.82,166.63 557.58,160.83C572.35,155.4 585.71,148.18 596.11,136.33C616.11,113.52 619.45,80.6 604.61,53.81L584.46,95.72C577.5,110.2 560.85,117.27 545.3,111.18C533.62,106.61 521.99,101.06 511.1,94.77C497.76,87.06 495.88,70.04 501.92,57.4L521.35,16.76C474.77,25.76 444.47,63.82 458.62,110.37C464.06,128.25 463.42,145.71 455.77,163.17L329.79,450.79C327.09,456.95 323.79,460.65 317.34,462.62C301.89,467.34 288.61,476.48 279.79,489.91C260.22,519.7 266.24,558.59 294.29,580.82C311.38,594.36 333.06,598.92 355.47,592.8C373.45,587.89 390.18,573.58 398.57,554.67C407.18,535.25 406.09,513.79 395.73,495C394.04,491.93 392.74,488.2 394.57,483.99L394.56,483.97Z" style="fill-rule:nonzero;"/>
            </g>
            <g transform="matrix(0.892222,0,0,0.946667,26.908658,28.675324)">
                <path d="M371.94,430.15C364.4,424.16 361.5,413.31 365.36,404.49L381.5,367.54L451.56,208.05C457.02,195.62 468.23,189.3 481.06,193.47C492.52,197.2 500.61,211.11 495.18,223.5L450.39,325.62L409.09,420.18C405.99,427.28 400.84,432.41 394.34,434.38C386.5,436.76 378.78,435.57 371.94,430.13L371.94,430.15ZM394.93,416.36L467.37,251.78L482.1,218.37C484.11,213.81 481.34,208.77 477.22,207.03C473.85,205.61 467.88,206.55 465.79,211.31L379.29,408.23C377.12,413.17 378.11,418.34 382.22,420.23C386.33,422.12 392.52,421.83 394.93,416.36Z" style="fill-rule:nonzero;"/>
            </g>
            <g transform="matrix(0.892222,0,0,0.946667,26.908658,28.675324)">
                <path d="M322.43,577.56C313.34,577.15 304.97,572.39 300.62,565.28L286.55,542.3C281.89,534.7 281.7,524.88 285.84,517.02L298.26,493.4C301.76,486.74 308.46,481.88 316.1,480.3C334.41,476.5 362.32,474.43 371.55,490.17L386.01,514.84C390.39,522.31 390.32,531.92 386.43,539.59L375.94,560.25C372.37,567.29 365.6,574.1 357.45,575.56C346,577.61 334.58,578.11 322.43,577.56ZM353.99,560.65C356.76,560.47 359.88,557.24 360.91,555.24L372.22,533.26C373.85,530.09 373.95,524.98 372.14,521.77L359.79,499.9C354.53,490.59 335.76,493.11 322.47,494.56C318.08,495.04 313.88,496.99 311.75,500.95L302.21,518.63C300.33,522.11 297.05,527.75 299.21,531.58L311.42,553.33C314.52,558.86 319,562.89 325.83,562.45L353.99,560.65Z" style="fill-rule:nonzero;"/>
            </g>
        </g>
    </g>
</svg>
